<svg xmlns="http://www.w3.org/2000/svg" viewBox="0 0 265 62" role="img" aria-label="AIEconLab">
<g transform="scale(0.96875)"><defs><linearGradient id="gd" x1="4" y1="56" x2="58" y2="10" gradientUnits="userSpaceOnUse">
      <stop offset="0" stop-color="#94a3b8"/><stop offset=".62" stop-color="#2563eb"/><stop offset="1" stop-color="#2563eb"/>
    </linearGradient></defs><polyline points="8,51 22,38 33,45 45,24 56,13" fill="none" stroke="url(#gd)" stroke-width="4"
     stroke-linecap="round" stroke-linejoin="round"/><circle cx="8" cy="51" r="2.6" fill="url(#gd)"/><circle cx="22" cy="38" r="3" fill="url(#gd)"/><circle cx="33" cy="45" r="3.2" fill="url(#gd)"/><circle cx="45" cy="24" r="3.5" fill="url(#gd)"/><circle cx="56" cy="13" r="8.4" fill="none" stroke="#2563eb" stroke-width="1.7" opacity=".35"/><circle cx="56" cy="13" r="5" fill="url(#gd)"/></g>
<path transform="translate(77 44.43359375)" d="M6.75 0L8.79-6.20L18.52-6.20L20.52 0L26.50 0L17.22-26.87L10.06-26.87L0.74 0M10.21-10.54L13.54-20.82L13.73-20.82L17.11-10.54 M34.61-26.87L29.04-26.87L29.04 0L34.61 0 M38.63 0L56.71 0L56.71-4.60L44.20-4.60L44.20-11.13L55.74-11.13L55.74-15.73L44.20-15.73L44.20-22.27L56.67-22.27L56.67-26.87L38.63-26.87 M69.45 0.41C74.80 0.41 78.14-2.75 78.40-7.31L73.24-7.31C72.90-5.16 71.46-3.97 69.53-3.97C66.86-3.97 65.15-6.20 65.15-10.09C65.15-13.92 66.89-16.14 69.53-16.14C71.61-16.14 72.90-14.77 73.24-12.77L78.40-12.77C78.17-17.37 74.65-20.41 69.45-20.41C63.33-20.41 59.58-16.18 59.58-10.02C59.58-3.86 63.29 0.41 69.45 0.41 M90.37 0.41C96.45 0.41 100.27-3.79 100.27-10.02C100.27-16.25 96.45-20.41 90.37-20.41C84.28-20.41 80.49-16.25 80.49-10.02C80.49-3.79 84.28 0.41 90.37 0.41M90.40-3.86C87.54-3.86 86.06-6.49 86.06-10.02C86.06-13.58 87.54-16.22 90.40-16.22C93.22-16.22 94.67-13.58 94.67-10.02C94.67-6.49 93.22-3.86 90.40-3.86 M108.72-11.65C108.72-14.32 110.28-15.85 112.58-15.85C114.84-15.85 116.21-14.36 116.21-11.87L116.21 0L121.67 0L121.67-12.84C121.71-17.55 118.92-20.41 114.73-20.41C111.76-20.41 109.61-18.96 108.68-16.62L108.46-16.62L108.46-20.15L103.22-20.15L103.22 0L108.72 0 M125.55 0L142.69 0L142.69-4.60L131.11-4.60L131.11-26.87L125.55-26.87 M144.71-5.64C144.71-1.63 147.57 0.37 151.43 0.37C154.44 0.37 156.33-0.93 157.33-2.78L157.48-2.78L157.48 0L162.68 0L162.68-13.58C162.68-18.44 158.52-20.41 154.14-20.41C148.80-20.41 145.75-17.66 145.42-14.18L150.65-14.18C150.95-15.55 152.14-16.40 153.99-16.40C156.03-16.40 157.18-15.40 157.22-13.73L157.22-12.10C156.37-12.06 153.66-11.93 152.21-11.84C148.35-11.62 144.71-10.13 144.71-5.64M149.98-5.79C149.98-7.35 151.21-8.24 153.10-8.42C154.05-8.52 156.39-8.65 157.22-8.68L157.22-7.20C157.26-5.08 155.48-3.41 152.99-3.41C151.25-3.41 149.98-4.23 149.98-5.79 M166.48 0L171.90 0L171.90-3.23L172.12-3.23C172.90-1.56 174.57 0.33 177.87 0.33C182.47 0.33 186.07-3.34 186.07-10.06C186.07-16.96 182.33-20.41 177.87-20.41C174.50-20.41 172.90-18.41 172.12-16.77L171.97-16.77L171.97-26.87L166.48-26.87M171.86-10.09C171.86-13.73 173.38-16.03 176.13-16.03C178.95-16.03 180.43-13.62 180.43-10.09C180.43-6.53 178.95-4.04 176.13-4.04C173.42-4.04 171.86-6.46 171.86-10.09" fill="#f1f5f9"/>
</svg>